<mxfile host="app.diagrams.net" modified="2022-09-15T06:58:01.073Z" agent="5.0 (X11; Linux x86_64) AppleWebKit/537.36 (KHTML, like Gecko) Chrome/105.0.0.0 Safari/537.36" etag="Wjoou_y6EPzArqavuLGO" version="20.3.0" type="github">
  <diagram id="hskkrKQqygYdUEk0GQF8" name="Page-1">
    <mxGraphModel dx="1673" dy="909" grid="1" gridSize="10" guides="1" tooltips="1" connect="1" arrows="1" fold="1" page="1" pageScale="1" pageWidth="850" pageHeight="1100" math="0" shadow="0">
      <root>
        <mxCell id="0" />
        <mxCell id="1" parent="0" />
        <mxCell id="Wqe9DHuMcaMFkSN1QOME-45" value="" style="edgeStyle=orthogonalEdgeStyle;rounded=0;orthogonalLoop=1;jettySize=auto;html=1;entryX=0.468;entryY=-0.009;entryDx=0;entryDy=0;entryPerimeter=0;" edge="1" parent="1" source="Wqe9DHuMcaMFkSN1QOME-1" target="Wqe9DHuMcaMFkSN1QOME-49">
          <mxGeometry relative="1" as="geometry">
            <mxPoint x="517" y="340" as="targetPoint" />
            <Array as="points">
              <mxPoint x="345" y="320" />
              <mxPoint x="517" y="320" />
            </Array>
          </mxGeometry>
        </mxCell>
        <mxCell id="Wqe9DHuMcaMFkSN1QOME-59" value="" style="edgeStyle=orthogonalEdgeStyle;rounded=0;orthogonalLoop=1;jettySize=auto;html=1;entryX=0.629;entryY=0.019;entryDx=0;entryDy=0;entryPerimeter=0;" edge="1" parent="1" source="Wqe9DHuMcaMFkSN1QOME-1" target="Wqe9DHuMcaMFkSN1QOME-56">
          <mxGeometry relative="1" as="geometry">
            <mxPoint x="310" y="480" as="targetPoint" />
            <Array as="points">
              <mxPoint x="300" y="350" />
              <mxPoint x="300" y="350" />
            </Array>
          </mxGeometry>
        </mxCell>
        <mxCell id="Wqe9DHuMcaMFkSN1QOME-1" value="" style="rounded=1;whiteSpace=wrap;html=1;" vertex="1" parent="1">
          <mxGeometry x="170" y="70" width="350" height="220" as="geometry" />
        </mxCell>
        <mxCell id="Wqe9DHuMcaMFkSN1QOME-2" value="Server python" style="text;html=1;strokeColor=none;fillColor=none;align=center;verticalAlign=middle;whiteSpace=wrap;rounded=0;" vertex="1" parent="1">
          <mxGeometry x="180" y="80" width="100" height="30" as="geometry" />
        </mxCell>
        <mxCell id="Wqe9DHuMcaMFkSN1QOME-7" value="" style="ellipse;whiteSpace=wrap;html=1;" vertex="1" parent="1">
          <mxGeometry x="207" y="105" width="230" height="110" as="geometry" />
        </mxCell>
        <mxCell id="Wqe9DHuMcaMFkSN1QOME-8" value="Neuroanalyzer&amp;nbsp;" style="text;html=1;strokeColor=none;fillColor=none;align=center;verticalAlign=middle;whiteSpace=wrap;rounded=0;" vertex="1" parent="1">
          <mxGeometry x="257" y="115" width="130" height="30" as="geometry" />
        </mxCell>
        <mxCell id="Wqe9DHuMcaMFkSN1QOME-20" value="" style="edgeStyle=orthogonalEdgeStyle;rounded=0;orthogonalLoop=1;jettySize=auto;html=1;exitX=1;exitY=0.5;exitDx=0;exitDy=0;" edge="1" parent="1" source="Wqe9DHuMcaMFkSN1QOME-49" target="Wqe9DHuMcaMFkSN1QOME-30">
          <mxGeometry relative="1" as="geometry">
            <mxPoint x="550" y="160" as="targetPoint" />
            <Array as="points">
              <mxPoint x="586" y="435" />
              <mxPoint x="670" y="435" />
              <mxPoint x="670" y="192" />
            </Array>
          </mxGeometry>
        </mxCell>
        <mxCell id="Wqe9DHuMcaMFkSN1QOME-13" value="" style="points=[];aspect=fixed;html=1;align=center;shadow=0;dashed=0;image;image=img/lib/allied_telesis/computer_and_terminals/Laptop.svg;" vertex="1" parent="1">
          <mxGeometry x="473" y="377" width="88.73" height="90" as="geometry" />
        </mxCell>
        <mxCell id="Wqe9DHuMcaMFkSN1QOME-15" value="" style="image;html=1;image=img/lib/clip_art/people/Suit_Man_128x128.png" vertex="1" parent="1">
          <mxGeometry x="322.13" y="367" width="120" height="120" as="geometry" />
        </mxCell>
        <mxCell id="Wqe9DHuMcaMFkSN1QOME-16" value="" style="shape=image;html=1;verticalAlign=top;verticalLabelPosition=bottom;labelBackgroundColor=#ffffff;imageAspect=0;aspect=fixed;image=https://cdn1.iconfinder.com/data/icons/DarkGlass_Reworked/128x128/actions/webcamsend.png" vertex="1" parent="1">
          <mxGeometry x="528.73" y="367" width="33" height="33" as="geometry" />
        </mxCell>
        <mxCell id="Wqe9DHuMcaMFkSN1QOME-17" value="" style="image;html=1;image=img/lib/clip_art/people/Suit_Man_Black_128x128.png" vertex="1" parent="1">
          <mxGeometry x="126.5" y="553.5" width="140" height="120" as="geometry" />
        </mxCell>
        <mxCell id="Wqe9DHuMcaMFkSN1QOME-24" value="" style="edgeStyle=orthogonalEdgeStyle;rounded=0;orthogonalLoop=1;jettySize=auto;html=1;exitX=1.002;exitY=0.514;exitDx=0;exitDy=0;exitPerimeter=0;" edge="1" parent="1" source="Wqe9DHuMcaMFkSN1QOME-56">
          <mxGeometry relative="1" as="geometry">
            <mxPoint x="430" y="550" as="sourcePoint" />
            <mxPoint x="520" y="140" as="targetPoint" />
            <Array as="points">
              <mxPoint x="730" y="596" />
              <mxPoint x="730" y="140" />
            </Array>
          </mxGeometry>
        </mxCell>
        <mxCell id="Wqe9DHuMcaMFkSN1QOME-18" value="" style="aspect=fixed;perimeter=ellipsePerimeter;html=1;align=center;shadow=0;dashed=0;spacingTop=3;image;image=img/lib/active_directory/cell_phone.svg;" vertex="1" parent="1">
          <mxGeometry x="252.5" y="569.5" width="21" height="50" as="geometry" />
        </mxCell>
        <mxCell id="Wqe9DHuMcaMFkSN1QOME-22" value="Video frames" style="text;html=1;strokeColor=none;fillColor=none;align=center;verticalAlign=middle;whiteSpace=wrap;rounded=0;" vertex="1" parent="1">
          <mxGeometry x="598" y="419" width="60" height="30" as="geometry" />
        </mxCell>
        <mxCell id="Wqe9DHuMcaMFkSN1QOME-25" value="Video frames" style="text;html=1;strokeColor=none;fillColor=none;align=center;verticalAlign=middle;whiteSpace=wrap;rounded=0;" vertex="1" parent="1">
          <mxGeometry x="478" y="524" width="60" height="30" as="geometry" />
        </mxCell>
        <mxCell id="Wqe9DHuMcaMFkSN1QOME-26" value="Websockets connection" style="text;html=1;strokeColor=none;fillColor=none;align=center;verticalAlign=middle;whiteSpace=wrap;rounded=0;" vertex="1" parent="1">
          <mxGeometry x="418" y="230" width="60" height="30" as="geometry" />
        </mxCell>
        <mxCell id="Wqe9DHuMcaMFkSN1QOME-33" value="" style="edgeStyle=orthogonalEdgeStyle;rounded=0;orthogonalLoop=1;jettySize=auto;html=1;" edge="1" parent="1" source="Wqe9DHuMcaMFkSN1QOME-30" target="Wqe9DHuMcaMFkSN1QOME-7">
          <mxGeometry relative="1" as="geometry">
            <Array as="points">
              <mxPoint x="480" y="165" />
              <mxPoint x="480" y="165" />
            </Array>
          </mxGeometry>
        </mxCell>
        <mxCell id="Wqe9DHuMcaMFkSN1QOME-30" value="" style="rounded=0;whiteSpace=wrap;html=1;" vertex="1" parent="1">
          <mxGeometry x="500" y="120" width="20" height="80" as="geometry" />
        </mxCell>
        <mxCell id="Wqe9DHuMcaMFkSN1QOME-31" value="Input" style="text;html=1;strokeColor=none;fillColor=none;align=center;verticalAlign=middle;whiteSpace=wrap;rounded=0;rotation=-90;" vertex="1" parent="1">
          <mxGeometry x="480" y="145" width="60" height="30" as="geometry" />
        </mxCell>
        <mxCell id="Wqe9DHuMcaMFkSN1QOME-34" value="" style="shape=image;html=1;verticalAlign=top;verticalLabelPosition=bottom;labelBackgroundColor=#ffffff;imageAspect=0;aspect=fixed;image=https://cdn2.iconfinder.com/data/icons/essential-web-2/50/sync-reload-refreshh-synchronization-loop-128.png" vertex="1" parent="1">
          <mxGeometry x="300" y="143" width="44" height="44" as="geometry" />
        </mxCell>
        <mxCell id="Wqe9DHuMcaMFkSN1QOME-35" value="Video frames" style="text;html=1;strokeColor=none;fillColor=none;align=center;verticalAlign=middle;whiteSpace=wrap;rounded=0;" vertex="1" parent="1">
          <mxGeometry x="440" y="150" width="60" height="30" as="geometry" />
        </mxCell>
        <mxCell id="Wqe9DHuMcaMFkSN1QOME-37" value="" style="rounded=0;whiteSpace=wrap;html=1;" vertex="1" parent="1">
          <mxGeometry x="282" y="270" width="80" height="20" as="geometry" />
        </mxCell>
        <mxCell id="Wqe9DHuMcaMFkSN1QOME-38" value="Output" style="text;html=1;strokeColor=none;fillColor=none;align=center;verticalAlign=middle;whiteSpace=wrap;rounded=0;" vertex="1" parent="1">
          <mxGeometry x="293" y="271" width="60" height="15" as="geometry" />
        </mxCell>
        <mxCell id="Wqe9DHuMcaMFkSN1QOME-40" value="" style="endArrow=classic;html=1;rounded=0;exitX=0.5;exitY=1;exitDx=0;exitDy=0;entryX=0.5;entryY=0;entryDx=0;entryDy=0;" edge="1" parent="1" source="Wqe9DHuMcaMFkSN1QOME-7" target="Wqe9DHuMcaMFkSN1QOME-38">
          <mxGeometry width="50" height="50" relative="1" as="geometry">
            <mxPoint x="450" y="320" as="sourcePoint" />
            <mxPoint x="322" y="250" as="targetPoint" />
          </mxGeometry>
        </mxCell>
        <mxCell id="Wqe9DHuMcaMFkSN1QOME-42" value="Res (%)" style="text;html=1;strokeColor=none;fillColor=none;align=center;verticalAlign=middle;whiteSpace=wrap;rounded=0;" vertex="1" parent="1">
          <mxGeometry x="262.13" y="230" width="60" height="30" as="geometry" />
        </mxCell>
        <mxCell id="Wqe9DHuMcaMFkSN1QOME-46" value="App" style="text;html=1;strokeColor=none;fillColor=none;align=center;verticalAlign=middle;whiteSpace=wrap;rounded=0;" vertex="1" parent="1">
          <mxGeometry x="538" y="440" width="60" height="30" as="geometry" />
        </mxCell>
        <mxCell id="Wqe9DHuMcaMFkSN1QOME-49" value="" style="whiteSpace=wrap;html=1;aspect=fixed;fillOpacity=0;" vertex="1" parent="1">
          <mxGeometry x="456" y="357" width="130" height="130" as="geometry" />
        </mxCell>
        <mxCell id="Wqe9DHuMcaMFkSN1QOME-54" value="Stop/Play video" style="text;html=1;strokeColor=none;fillColor=none;align=center;verticalAlign=middle;whiteSpace=wrap;rounded=0;" vertex="1" parent="1">
          <mxGeometry x="456" y="367" width="60" height="30" as="geometry" />
        </mxCell>
        <mxCell id="Wqe9DHuMcaMFkSN1QOME-55" value="Res (%)" style="text;html=1;strokeColor=none;fillColor=none;align=center;verticalAlign=middle;whiteSpace=wrap;rounded=0;" vertex="1" parent="1">
          <mxGeometry x="456" y="320" width="60" height="30" as="geometry" />
        </mxCell>
        <mxCell id="Wqe9DHuMcaMFkSN1QOME-56" value="" style="whiteSpace=wrap;html=1;aspect=fixed;fillOpacity=0;" vertex="1" parent="1">
          <mxGeometry x="244" y="550" width="89" height="89" as="geometry" />
        </mxCell>
        <mxCell id="Wqe9DHuMcaMFkSN1QOME-57" value="Stop/Play video" style="text;html=1;strokeColor=none;fillColor=none;align=center;verticalAlign=middle;whiteSpace=wrap;rounded=0;" vertex="1" parent="1">
          <mxGeometry x="268.5" y="553.5" width="60" height="30" as="geometry" />
        </mxCell>
        <mxCell id="Wqe9DHuMcaMFkSN1QOME-58" value="App" style="text;html=1;strokeColor=none;fillColor=none;align=center;verticalAlign=middle;whiteSpace=wrap;rounded=0;" vertex="1" parent="1">
          <mxGeometry x="273.5" y="598.5" width="60" height="30" as="geometry" />
        </mxCell>
        <mxCell id="Wqe9DHuMcaMFkSN1QOME-60" value="Res (%)" style="text;html=1;strokeColor=none;fillColor=none;align=center;verticalAlign=middle;whiteSpace=wrap;rounded=0;" vertex="1" parent="1">
          <mxGeometry x="240" y="500" width="60" height="30" as="geometry" />
        </mxCell>
      </root>
    </mxGraphModel>
  </diagram>
</mxfile>
